# xmcd
#
# Track frame offsets: 
#        182
#        20817
#        44837
#
# Disc length: 867 seconds
#
# Revision: 1
# Processed by: cddbd v1.5.1PL0 Copyright (c) Steve Scherf et al.
# Submitted via: ExactAudioCopy v0.95a5
#
DISCID=27036103
DTITLE=Madonna - MAXI Erotica [PRO-CD-5665] [USA]
DYEAR=1992
DGENRE=Pop
TTITLE0=Erotica (Radio Edit)
TTITLE1=Erotica (Album Version)
TTITLE2=Erotica (Edit)
EXTD=
EXTT0=
EXTT1=
EXTT2=
PLAYORDER=
